HIERARCHY
ROOT Hips
{
	OFFSET -0.001795 -0.223333 0.028219
	CHANNELS 6 Xposition Yposition Zposition Zrotation Yrotation Xrotation 
	JOINT LeftUpLeg
	{
		OFFSET 0.069520 -0.091406 -0.006815
		CHANNELS 3 Zrotation Yrotation Xrotation
		JOINT LeftLeg
		{
			OFFSET 0.034277 -0.375199 -0.004496
			CHANNELS 3 Zrotation Yrotation Xrotation
			JOINT LeftFoot
			{
				OFFSET -0.013596 -0.397961 -0.043693
				CHANNELS 3 Zrotation Yrotation Xrotation
				JOINT LeftToe
				{
					OFFSET 0.026358 -0.055791 0.119288
					CHANNELS 3 Zrotation Yrotation Xrotation
					End Site
					{
						OFFSET 0.000000 0.000000 0.000000
					}
				}
			}
		}
	}
	JOINT RightUpLeg
	{
		OFFSET -0.067670 -0.090522 -0.004320
		CHANNELS 3 Zrotation Yrotation Xrotation
		JOINT RightLeg
		{
			OFFSET -0.038290 -0.382569 -0.008850
			CHANNELS 3 Zrotation Yrotation Xrotation
			JOINT RightFoot
			{
				OFFSET 0.015774 -0.398415 -0.042312
				CHANNELS 3 Zrotation Yrotation Xrotation
				JOINT RightToe
				{
					OFFSET -0.025372 -0.048144 0.123348
					CHANNELS 3 Zrotation Yrotation Xrotation
					End Site
					{
						OFFSET 0.000000 0.000000 0.000000
					}
				}
			}
		}
	}
	JOINT Spine
	{
		OFFSET -0.002533 0.108963 -0.026696
		CHANNELS 3 Zrotation Yrotation Xrotation
		JOINT Spine1
		{
			OFFSET 0.005487 0.135180 0.001092
			CHANNELS 3 Zrotation Yrotation Xrotation
			JOINT Spine2
			{
				OFFSET 0.001457 0.052922 0.025425
				CHANNELS 3 Zrotation Yrotation Xrotation
				JOINT Neck
				{
					OFFSET -0.002778 0.213870 -0.042857
					CHANNELS 3 Zrotation Yrotation Xrotation
					JOINT Head
					{
						OFFSET 0.005152 0.064970 0.051349
						CHANNELS 3 Zrotation Yrotation Xrotation
						End Site
						{
							OFFSET 0.000000 0.000000 0.000000
						}
					}
				}
				JOINT LeftShoulder
				{
					OFFSET 0.078845 0.121749 -0.034090
					CHANNELS 3 Zrotation Yrotation Xrotation
					JOINT LeftArm
					{
						OFFSET 0.090977 0.030469 -0.008868
						CHANNELS 3 Zrotation Yrotation Xrotation
						JOINT LeftForeArm
						{
							OFFSET 0.259612 -0.012772 -0.027456
							CHANNELS 3 Zrotation Yrotation Xrotation
							JOINT LeftHand
							{
								OFFSET 0.249234 0.008986 -0.001171
								CHANNELS 3 Zrotation Yrotation Xrotation
								End Site
								{
									OFFSET 0.000000 0.000000 0.000000
								}
							}
						}
					}
				}
				JOINT RightShoulder
				{
					OFFSET -0.081759 0.118833 -0.038615
					CHANNELS 3 Zrotation Yrotation Xrotation
					JOINT RightArm
					{
						OFFSET -0.096012 0.032551 -0.009143
						CHANNELS 3 Zrotation Yrotation Xrotation
						JOINT RightForeArm
						{
							OFFSET -0.253742 -0.013329 -0.021401
							CHANNELS 3 Zrotation Yrotation Xrotation
							JOINT RightHand
							{
								OFFSET -0.255298 0.007772 -0.005559
								CHANNELS 3 Zrotation Yrotation Xrotation
								End Site
								{
									OFFSET 0.000000 0.000000 0.000000
								}
							}
						}
					}
				}
			}
		}
	}
}
MOTION
Frames: 12
Frame Time: 0.035714
0.074143 0.948455 1.363757 -7.247437 -7.437573 -14.490794 6.382125 1.547955 24.675639 -9.923545 0.670789 -12.842031 3.977672 8.528674 -0.249819 0.000000 0.000000 0.000000 -3.348244 -0.865423 16.113851 2.997671 -0.321857 -2.123024 -4.774955 -17.384797 36.783530 0.000000 0.000000 0.000000 -3.506495 -0.134786 0.980200 10.942579 -6.534539 9.179213 -5.326690 -1.493416 20.345203 -3.779390 3.304633 -40.489585 0.000000 0.000000 0.000000 -22.502762 -9.620553 5.554166 -50.455466 -14.184833 -2.144588 4.382438 -47.622358 1.546887 0.000000 0.000000 0.000000 12.396161 22.327377 8.658708 54.553741 15.950605 0.544861 0.273154 28.024067 0.958440 0.000000 0.000000 0.000000 
0.071633 0.948225 1.364051 -7.233936 -7.821768 -14.469481 6.606121 1.547001 24.679925 -10.003917 0.681033 -12.986343 4.066612 8.800885 0.060760 0.000000 0.000000 0.000000 -3.016461 -0.920294 16.684144 2.935009 -0.323941 -2.927537 -5.122893 -17.735032 35.599740 0.000000 0.000000 0.000000 -3.660912 -0.134503 0.706105 10.954531 -6.510693 9.160021 -5.376235 -1.383715 20.271198 -3.234250 3.072678 -40.294250 0.000000 0.000000 0.000000 -22.093235 -9.773435 5.633031 -47.693633 -13.120457 -2.579912 3.079425 -50.032423 2.197944 0.000000 0.000000 0.000000 12.243759 22.176103 8.554725 54.413909 14.590558 -0.080937 1.453396 33.567036 1.486049 0.000000 0.000000 0.000000 
0.068888 0.948300 1.364202 -7.192132 -7.870429 -14.255032 6.700050 1.526404 24.554931 -9.898747 0.668675 -13.288292 4.050320 8.839969 0.398472 0.000000 0.000000 0.000000 -2.752458 -0.951855 16.588176 3.097507 -0.338436 -3.371395 -6.303210 -19.047301 36.054371 0.000000 0.000000 0.000000 -3.708063 -0.133657 0.763346 10.962268 -6.497482 9.084479 -5.512072 -1.178652 20.252975 -2.924998 2.968950 -40.150972 0.000000 0.000000 0.000000 -21.599018 -9.872094 5.586166 -44.942624 -11.854375 -2.986281 -1.404254 -55.321694 4.764285 0.000000 0.000000 0.000000 11.801448 21.813438 8.385665 54.144098 13.803893 -0.470829 2.042219 40.698832 2.069805 0.000000 0.000000 0.000000 
0.065772 0.948339 1.364369 -7.064769 -7.713248 -13.858318 6.731558 1.492469 24.358153 -9.833551 0.644774 -13.733222 3.938631 8.654072 0.654560 0.000000 0.000000 0.000000 -2.570428 -0.981058 16.528008 3.363160 -0.357962 -3.696885 -7.174497 -19.942060 34.891186 0.000000 0.000000 0.000000 -3.676865 -0.130170 0.926515 10.959256 -6.476878 8.921100 -5.491849 -0.868715 20.276451 -3.190661 3.115346 -39.900528 0.000000 0.000000 0.000000 -21.084160 -9.927019 5.458087 -42.652808 -10.819111 -3.231497 -6.267348 -59.089363 7.801089 0.000000 0.000000 0.000000 11.598837 21.265574 8.199044 53.812608 12.910329 -0.912715 3.218638 45.902835 2.921105 0.000000 0.000000 0.000000 
0.062366 0.948551 1.364613 -6.897180 -7.335719 -13.558107 6.707376 1.448079 24.159792 -9.808996 0.607670 -14.314197 3.913979 8.732637 1.292933 0.000000 0.000000 0.000000 -2.445701 -1.016071 16.523248 3.500271 -0.371020 -4.114521 -7.915015 -20.708332 34.629709 0.000000 0.000000 0.000000 -3.582367 -0.123835 0.829270 10.992634 -6.482386 8.673206 -5.380549 -0.728255 20.453810 -4.144365 3.532866 -39.817436 0.000000 0.000000 0.000000 -20.318997 -10.005934 5.358291 -41.912217 -10.261692 -3.357343 -10.426581 -61.820010 10.717728 0.000000 0.000000 0.000000 10.891469 20.808906 7.990117 53.889878 12.567098 -1.125321 3.412275 49.512871 3.357953 0.000000 0.000000 0.000000 
0.058841 0.948984 1.364628 -6.601566 -7.917467 -13.197693 6.791109 1.476038 23.863069 -9.740782 0.623175 -14.600074 3.712711 8.481688 2.019068 0.000000 0.000000 0.000000 -2.364417 -0.993558 16.575575 3.580104 -0.370895 -4.878899 -8.360086 -21.249955 33.681989 0.000000 0.000000 0.000000 -3.274116 -0.111535 0.703292 11.028951 -6.433216 8.485054 -5.176296 -0.647538 20.589372 -5.295696 3.962850 -40.148232 0.000000 0.000000 0.000000 -19.590360 -9.895147 5.321813 -42.362363 -9.820800 -3.548738 -12.984520 -63.824287 12.922142 0.000000 0.000000 0.000000 9.935458 20.512850 7.720213 54.039575 12.707480 -1.095755 4.185897 52.780027 3.946686 0.000000 0.000000 0.000000 
0.055194 0.949086 1.364367 -6.295084 -8.146998 -12.848399 6.748962 1.483506 23.473375 -9.666760 0.630908 -14.726325 3.613474 8.363340 2.419309 0.000000 0.000000 0.000000 -2.304364 -0.992682 16.740975 3.505405 -0.365882 -5.980797 -8.731685 -21.680627 33.510626 0.000000 0.000000 0.000000 -2.814919 -0.096749 0.586911 10.918334 -6.319631 8.258100 -4.937254 -0.409075 20.746683 -6.343076 4.386740 -40.864839 0.000000 0.000000 0.000000 -19.316891 -9.270900 4.946548 -43.549042 -9.887203 -3.589779 -12.695453 -64.676805 13.058899 0.000000 0.000000 0.000000 9.071454 20.114317 7.486630 54.363557 13.168483 -0.935888 4.899367 55.330736 4.586457 0.000000 0.000000 0.000000 
0.051396 0.948846 1.363545 -6.070322 -8.342420 -12.492365 6.654508 1.473682 22.814072 -9.670310 0.649611 -14.519936 3.892829 8.952989 2.555424 0.000000 0.000000 0.000000 -2.257513 -0.982908 16.710602 3.365472 -0.358268 -7.083599 -8.916017 -21.889039 34.340025 0.000000 0.000000 0.000000 -2.261326 -0.084100 0.644705 10.723999 -6.163934 8.028544 -4.817382 -0.284117 20.787361 -7.229196 4.727405 -41.383137 0.000000 0.000000 0.000000 -19.370501 -8.822442 4.709194 -44.797126 -9.877279 -3.656163 -11.517624 -65.695754 12.658422 0.000000 0.000000 0.000000 8.117808 20.019874 7.361083 54.802949 13.510586 -0.807041 6.046774 57.002114 5.382998 0.000000 0.000000 0.000000 
0.047540 0.948804 1.362277 -5.903422 -8.356061 -12.151474 6.624703 1.440854 22.255356 -9.590311 0.660546 -14.263078 3.987853 9.112105 2.409259 0.000000 0.000000 0.000000 -2.332931 -0.968856 16.774253 3.237888 -0.353791 -8.153414 -8.192824 -21.102870 34.976305 0.000000 0.000000 0.000000 -1.767098 -0.080725 0.944620 10.654530 -6.095700 7.824678 -4.820057 -0.444190 20.714470 -7.753184 4.894352 -42.193203 0.000000 0.000000 0.000000 -20.024826 -8.234881 4.479612 -45.653739 -9.468729 -3.864653 -10.135555 -66.737300 12.111905 0.000000 0.000000 0.000000 7.890633 19.870746 7.250666 55.032130 13.377951 -0.862647 7.973387 57.726226 6.454456 0.000000 0.000000 0.000000 
0.043606 0.949633 1.360558 -5.677122 -8.574030 -11.711132 6.663337 1.415135 21.698354 -9.453950 0.674177 -14.160899 3.823775 8.815657 2.617080 0.000000 0.000000 0.000000 -2.362905 -0.954901 16.959142 3.139518 -0.346828 -9.077871 -6.991008 -19.786151 33.640124 0.000000 0.000000 0.000000 -1.321340 -0.091728 1.600248 10.756624 -6.122998 7.722940 -4.910078 -0.772630 20.637747 -8.316898 5.037010 -43.109129 0.000000 0.000000 0.000000 -20.998792 -7.879852 4.477003 -46.864117 -8.889001 -4.187883 -10.359636 -66.617739 12.416381 0.000000 0.000000 0.000000 7.973181 19.676128 7.105831 54.933435 13.563572 -0.756209 7.753133 58.560098 6.292977 0.000000 0.000000 0.000000 
0.039646 0.950575 1.358441 -5.611397 -9.451472 -11.323892 6.738616 1.446579 21.307010 -9.382205 0.702808 -14.368155 4.187422 9.650636 3.232262 0.000000 0.000000 0.000000 -2.295342 -0.917481 17.039582 3.099855 -0.329377 -9.905626 -5.511300 -18.158707 32.489032 0.000000 0.000000 0.000000 -0.948945 -0.105761 2.148215 11.038260 -6.212348 7.624012 -5.087297 -1.357997 20.640611 -8.949929 5.138176 -43.986459 0.000000 0.000000 0.000000 -21.757912 -7.809929 4.812388 -48.290734 -9.295717 -4.207554 -10.862149 -65.847961 12.916998 0.000000 0.000000 0.000000 8.254699 19.477544 6.878013 54.647446 13.893122 -0.570950 5.684647 58.622427 4.809951 0.000000 0.000000 0.000000 
0.035884 0.951273 1.356040 -5.638329 -10.274132 -10.869772 6.855169 1.454461 20.814821 -9.323377 0.730911 -14.528675 4.643794 10.621090 3.725002 0.000000 0.000000 0.000000 -2.226899 -0.874146 16.873322 3.072667 -0.310388 -10.517449 -3.906413 -16.338974 31.736848 0.000000 0.000000 0.000000 -0.720954 -0.116473 2.498129 11.219228 -6.254277 7.621416 -5.195734 -1.682819 20.570598 -9.619438 5.278248 -44.975654 0.000000 0.000000 0.000000 -22.506710 -8.015640 5.229353 -49.903443 -10.096300 -4.024630 -11.946487 -65.719147 13.874737 0.000000 0.000000 0.000000 8.592941 19.537163 6.799013 54.603369 14.021578 -0.466256 4.220917 58.562139 3.750054 0.000000 0.000000 0.000000 
